# Blender 5.0.1
# www.blender.org
mtllib Landscape_rock_003.mtl
o Landscape_rock.003
v -13.694074 0.000000 12.407767
v -18.986305 0.000000 -1.196925
v 0.251701 0.000000 14.633318
v -11.976517 10.748341 13.227298
v -10.376637 20.357994 -0.472653
v 1.023794 10.735718 14.377434
v -6.712195 20.357994 7.525607
v 2.259747 20.357994 7.965605
v 11.231684 15.311362 8.405602
v 4.821031 20.357994 -0.539130
v 19.563545 15.311362 -4.147384
v 6.769674 20.357994 -10.315037
v 17.738140 10.808072 -11.436678
v 8.279982 10.731196 -15.453345
v -1.965081 10.851103 -18.642080
v -26.992897 0.070714 -2.221283
v -2.202877 0.000000 -19.356712
v 9.390367 0.000000 -15.711576
v 19.290651 0.000000 -12.848729
v 4.821031 0.000000 -0.539130
v 27.947216 0.000000 -2.399283
v 22.514965 0.000000 16.059370
v 27.786489 10.495704 -1.698614
v 15.704890 10.769412 14.424238
v 2.690874 6.770635 15.104535
v -21.067722 0.112728 10.374928
v -21.067722 11.152403 10.374928
v -17.945875 16.540730 -1.488979
v -26.506765 11.234833 -3.391087
v -10.538597 11.213879 -17.649591
v -10.872585 0.009801 -18.342695
vn -0.0134 -0.9999 0.0073
vn -0.0000 -1.0000 -0.0000
vn -0.1374 -0.0077 0.9905
vn -0.1139 0.0662 -0.9913
vn -0.7290 0.5975 0.3340
vn -0.0601 0.5465 0.8353
vn -0.0000 1.0000 -0.0000
vn 0.1271 0.6705 0.7309
vn 0.4065 0.8891 0.2103
vn 0.3378 0.9388 0.0673
vn 0.5210 0.6617 -0.5392
vn 0.3388 0.4838 -0.8069
vn 0.2649 0.4861 -0.8328
vn -0.3160 0.7726 -0.5506
vn -0.2848 -0.0136 0.9585
vn -0.0048 -1.0000 -0.0029
vn 0.2985 0.0550 -0.9528
vn 0.3323 0.1137 -0.9363
vn 0.7287 0.1254 -0.6733
vn 0.9593 -0.0042 0.2823
vn 0.6906 0.5140 0.5088
vn 0.4297 0.8525 0.2978
vn 0.5398 0.6490 -0.5361
vn 0.0025 0.1597 0.9872
vn -0.0639 -0.0464 0.9969
vn -0.9175 0.0409 0.3956
vn -0.5488 0.8060 0.2217
vn -0.3976 0.8016 -0.4465
vn -0.6875 0.0097 -0.7262
vn -0.1851 0.8682 -0.4604
vn -0.2780 0.8500 0.4474
vt 0.202543 0.375120
vt 0.202884 0.375120
vt 0.204079 0.375120
vt 0.203784 0.375120
vt 0.203942 0.383937
vt 0.203834 0.389101
vt 0.202995 0.389117
vt 0.203493 0.389251
vt 0.203477 0.375120
vt 0.203335 0.395060
vt 0.203098 0.395060
vt 0.203914 0.395060
vt 0.204079 0.395060
vt 0.204782 0.389145
vt 0.204493 0.395060
vt 0.205031 0.395060
vt 0.204205 0.395060
vt 0.204913 0.389195
vt 0.204303 0.389095
vt 0.204374 0.375120
vt 0.205013 0.375120
vt 0.206006 0.375120
vt 0.205221 0.375120
vt 0.205562 0.388788
vt 0.205562 0.388788
vt 0.202564 0.389082
s 0
usemtl Sci_Fi_Pack_Texture
f 2/1/1 1/2/1 26/2/1 16/1/1
f 2/1/2 20/3/2 3/4/2 1/2/2
f 25/5/3 6/6/3 4/7/3 1/2/3 3/4/3
f 15/8/4 17/9/4 31/9/4 30/8/4
f 4/7/5 7/10/5 5/11/5
f 6/6/6 8/12/6 7/10/6 4/7/6
f 10/13/7 5/11/7 7/10/7 8/12/7
f 24/14/8 9/15/8 8/12/8 6/6/8
f 11/16/9 10/13/9 8/12/9 9/15/9
f 12/17/10 10/13/10 11/16/10
f 12/17/7 5/11/7 10/13/7
f 13/18/11 12/17/11 11/16/11
f 14/19/12 12/17/12 13/18/12
f 15/8/13 12/17/13 14/19/13
f 12/17/14 15/8/14 5/11/14
f 1/2/15 4/7/15 27/7/15 26/2/15
f 17/9/16 2/1/16 16/1/16 31/9/16
f 15/8/17 14/19/17 18/20/17 17/9/17
f 17/9/2 18/20/2 20/3/2 2/1/2
f 14/19/18 13/18/18 19/21/18 18/20/18
f 18/20/2 19/21/2 21/22/2 20/3/2
f 20/3/2 21/22/2 22/23/2 3/4/2
f 13/18/19 23/24/19 21/22/19 19/21/19
f 23/24/20 22/23/20 21/22/20
f 23/25/21 24/14/21 22/23/21
f 23/25/22 11/16/22 9/15/22 24/14/22
f 11/16/23 23/25/23 13/18/23
f 24/14/24 6/6/24 25/5/24 22/23/24
f 22/23/25 25/5/25 3/4/25
f 27/7/26 29/26/26 16/1/26 26/2/26
f 28/11/27 29/26/27 27/7/27
f 29/26/28 28/11/28 30/8/28
f 29/26/29 30/8/29 31/9/29 16/1/29
f 5/11/30 15/8/30 30/8/30 28/11/30
f 4/7/31 5/11/31 28/11/31 27/7/31
