# Blender 5.0.1
# www.blender.org
mtllib Landscape_rock_002.mtl
o Landscape_rock.002
v -3.771338 4.930352 3.503963
v -0.630567 4.930352 3.712757
v -5.054134 4.890205 -0.291469
v -3.820719 2.599011 4.400221
v -0.748635 2.593658 4.768643
v -5.399207 2.587453 -0.545059
v -5.841257 0.000000 5.606523
v -0.494864 0.000000 6.452561
v -7.190646 0.000000 -0.707487
v -2.780176 0.000000 -5.948117
v -2.015498 2.598881 -4.373671
v 0.700859 0.000000 -6.403800
v 3.649119 0.000000 6.502910
v 4.320969 0.000000 -4.792623
v 0.966065 2.591741 -4.787001
v 3.201109 2.624344 -3.500349
v 0.948206 6.913484 -4.961997
v 5.426904 6.306898 -2.035247
v -1.999334 2.642593 -4.342214
v 2.510203 4.930352 3.921550
v 6.502987 3.871352 -0.380971
v 2.720635 2.607948 4.783636
v 8.650641 0.000000 -0.573202
v -0.665135 10.316776 3.406527
v -3.087009 8.090986 3.107656
v -4.046049 8.060820 0.458482
v 0.373401 11.711036 -2.778176
v 3.780519 11.262358 -0.531173
v -0.103277 11.270403 0.549279
v 1.821206 10.272835 3.726087
vn -0.6733 0.2874 -0.6812
vn -0.0850 0.3870 0.9182
vn -0.9383 0.1412 0.3156
vn -0.9471 0.1087 0.3020
vn -0.1221 0.5141 0.8490
vn -0.7700 0.6061 0.1996
vn -0.0000 -1.0000 -0.0000
vn -0.6529 0.5095 -0.5605
vn -0.1119 0.5365 -0.8365
vn 0.3827 0.4970 -0.7788
vn 0.4990 -0.0330 -0.8660
vn -0.1488 -0.0326 -0.9883
vn 0.5472 0.0022 -0.8370
vn 0.8801 0.1420 0.4530
vn -0.0931 0.0402 0.9948
vn -0.6460 0.3472 -0.6798
vn -0.7325 0.1921 -0.6531
vn -0.9203 0.2283 0.3177
vn 0.7011 0.4722 0.5344
vn 0.7087 -0.1545 -0.6884
vn 0.6979 0.4606 0.5484
vn 0.5808 0.4476 -0.6800
vn -0.0082 0.5462 0.8376
vn -0.0321 0.3799 0.9245
vn -0.6459 0.7440 0.1714
vn 0.0401 0.9898 0.1368
vn -0.6314 0.7753 0.0122
vn 0.0409 0.9601 0.2767
vn -0.1265 0.0908 0.9878
vn 0.5392 0.4025 -0.7398
vt 0.212959 0.390738
vt 0.211689 0.387443
vt 0.212533 0.381437
vt 0.212625 0.387508
vt 0.211960 0.387508
vt 0.211570 0.381450
vt 0.211076 0.381422
vt 0.212613 0.375180
vt 0.210937 0.375180
vt 0.210514 0.375180
vt 0.211897 0.375180
vt 0.212136 0.381450
vt 0.212987 0.375180
vt 0.213911 0.375180
vt 0.213071 0.381433
vt 0.214122 0.375180
vt 0.215479 0.375180
vt 0.213771 0.381511
vt 0.212141 0.381555
vt 0.213906 0.389750
vt 0.213289 0.387508
vt 0.214806 0.384520
vt 0.213620 0.381472
vt 0.212814 0.389750
s 0
usemtl Sci_Fi_Pack_Texture
f 17/1/1 3/2/1 26/2/1 27/1/1
f 5/3/2 2/4/2 1/5/2 4/6/2
f 4/6/3 1/5/3 3/2/3
f 3/2/4 6/7/4 4/6/4
f 8/8/5 5/3/5 4/6/5 7/9/5
f 7/9/6 4/6/6 6/7/6 9/10/6
f 9/10/7 10/11/7 8/8/7 7/9/7
f 9/10/8 6/7/8 11/12/8 10/11/8
f 10/11/7 12/13/7 13/14/7 8/8/7
f 10/11/9 11/12/9 15/15/9 12/13/9
f 12/13/7 14/16/7 23/17/7 13/14/7
f 12/13/10 15/15/10 16/18/10 14/16/10
f 15/15/11 17/1/11 16/18/11
f 11/12/12 19/19/12 17/1/12 15/15/12
f 16/18/13 17/1/13 18/20/13
f 20/21/14 18/20/14 28/20/14 30/21/14
f 2/4/15 20/21/15 30/21/15 24/4/15
f 17/1/16 19/19/16 3/2/16
f 6/7/17 3/2/17 19/19/17 11/12/17
f 3/2/18 1/5/18 25/5/18 26/2/18
f 21/22/19 18/20/19 20/21/19 22/23/19
f 18/20/20 21/22/20 16/18/20
f 23/17/21 21/22/21 22/23/21 13/14/21
f 14/16/22 16/18/22 21/22/22 23/17/22
f 13/14/23 22/23/23 5/3/23 8/8/23
f 22/23/24 20/21/24 2/4/24 5/3/24
f 29/24/25 26/2/25 25/5/25 24/4/25
f 27/1/26 29/24/26 28/20/26
f 27/1/27 26/2/27 29/24/27
f 28/20/28 29/24/28 24/4/28 30/21/28
f 1/5/29 2/4/29 24/4/29 25/5/29
f 18/20/30 17/1/30 27/1/30 28/20/30
