# Blender 5.0.1
# www.blender.org
mtllib Landscape_rock_001.mtl
o Landscape_rock.001
v -4.566755 0.000000 3.360527
v -8.137244 0.000000 -1.161685
v 0.387029 0.000000 6.160992
v -7.091129 14.173625 3.702845
v -2.797124 14.710468 6.204790
v -8.232317 14.750980 -1.383257
v -5.569847 18.217630 4.073991
v -6.662967 24.028111 0.871150
v -2.666767 18.379478 5.023830
v -8.330123 18.323170 -1.434569
v -4.150743 24.757269 5.269178
v -0.209969 24.619387 5.299902
v 1.573475 24.273407 4.966042
v 3.025722 26.405153 -2.431005
v -3.030103 26.980606 -4.833210
v 2.385948 18.909580 -2.673891
v -1.000637 18.187090 -5.176185
v -5.002264 17.736242 -5.064510
v -5.016001 17.639963 -5.094236
v -3.938233 13.436829 -5.233778
v -0.852901 14.689787 -5.109277
v -5.052919 0.000000 -5.281262
v -0.448292 0.000000 -4.931921
v 4.371051 -0.000000 -5.070088
v -0.223180 0.000000 -0.621852
v 8.296455 0.000000 -1.682804
v 5.978678 0.000000 3.961387
v 5.069630 14.814062 -0.653883
v 4.131917 15.772820 -4.898065
v 0.639238 13.579995 4.294222
v 2.724638 20.521015 -1.103285
v -0.548089 17.880175 4.245085
v -0.365344 27.554836 4.598033
v -2.278818 27.374430 4.197487
v -4.182290 26.816980 0.939975
v 1.328461 27.226160 4.308107
v -1.264689 29.290144 1.887602
v 2.133677 28.886719 -1.196546
v -2.692209 29.277014 -2.932021
vn -0.8967 -0.0830 0.4347
vn -0.0000 -1.0000 -0.0000
vn -0.4897 -0.1084 0.8651
vn -0.4395 0.1864 0.8787
vn -0.9233 0.1579 0.3502
vn -0.8906 0.0793 0.4478
vn -0.8710 0.1011 0.4808
vn -0.1412 -0.0708 0.9874
vn 0.3401 0.5432 -0.7676
vn 0.2380 -0.1618 0.9577
vn 0.9592 0.1774 0.2200
vn -0.7132 0.6309 0.3054
vn -0.8382 0.5236 -0.1524
vn 0.3686 -0.0013 -0.9296
vn 0.5639 0.1617 -0.8099
vn -0.0318 0.0347 -0.9989
vn -0.8700 0.1969 -0.4521
vn -0.6251 0.4405 -0.6443
vn -0.7121 -0.0998 -0.6949
vn 0.0035 0.0100 -0.9999
vn 0.0625 -0.0062 -0.9980
vn -0.7318 0.0223 -0.6811
vn 0.0075 -0.0000 -1.0000
vn 0.8442 0.1162 -0.5233
vn 0.9112 0.1725 0.3742
vn 0.6882 0.2540 0.6796
vn 0.8620 0.4468 -0.2394
vn 0.7135 0.2838 0.6406
vn 0.9429 -0.1720 0.2852
vn 0.9882 -0.0801 -0.1309
vn 0.4732 0.1954 0.8590
vn 0.5234 0.1854 0.8317
vn 0.2173 0.3574 -0.9083
vn 0.3650 0.0762 0.9279
vn -0.5245 0.7541 0.3952
vn 0.3583 0.8643 0.3532
vn 0.0912 0.9954 -0.0297
vn -0.6704 0.7155 0.1966
vn 0.2154 0.2336 0.9482
vn -0.0719 0.3236 0.9435
vt 0.205329 0.394583
vt 0.205768 0.395386
vt 0.205012 0.374889
vt 0.206094 0.374889
vt 0.207410 0.374889
vt 0.207595 0.374889
vt 0.206630 0.395329
vt 0.206670 0.400427
vt 0.205790 0.400202
vt 0.205738 0.400349
vt 0.206465 0.408747
vt 0.207002 0.409461
vt 0.207360 0.409326
vt 0.208051 0.411076
vt 0.206757 0.411639
vt 0.207312 0.399734
vt 0.207741 0.408988
vt 0.208201 0.401164
vt 0.207175 0.400160
vt 0.205958 0.399400
vt 0.205962 0.399534
vt 0.206285 0.393559
vt 0.207219 0.395300
vt 0.205947 0.374889
vt 0.207342 0.374889
vt 0.208575 0.396805
vt 0.208647 0.374889
vt 0.209992 0.374889
vt 0.209289 0.374889
vt 0.209014 0.395473
vt 0.207672 0.393758
vt 0.208303 0.403403
vt 0.207158 0.411701
s 0
usemtl Sci_Fi_Pack_Texture
f 4/1/1 6/2/1 2/3/1 1/4/1
f 2/3/2 25/5/2 3/6/2 1/4/2
f 5/7/3 4/1/3 1/4/3 3/6/3
f 5/7/4 9/8/4 7/9/4 4/1/4
f 4/1/5 7/9/5 10/10/5 6/2/5
f 8/11/6 10/10/6 7/9/6
f 7/9/7 11/12/7 8/11/7
f 9/8/8 12/13/8 11/12/8 7/9/8
f 14/14/9 15/15/9 39/15/9 38/14/9
f 32/16/10 13/17/10 12/13/10 9/8/10
f 13/17/11 14/14/11 38/14/11 36/17/11
f 8/11/12 11/12/12 34/12/12 35/11/12
f 15/15/13 8/11/13 35/11/13 39/15/13
f 16/18/14 15/15/14 14/14/14
f 17/19/15 15/15/15 16/18/15
f 19/20/16 18/21/16 15/15/16 17/19/16
f 15/15/17 18/21/17 8/11/17
f 10/10/18 8/11/18 18/21/18 19/20/18
f 6/2/19 10/10/19 19/20/19 20/22/19
f 20/22/20 19/20/20 17/19/20 21/23/20
f 22/24/21 20/22/21 21/23/21 23/25/21
f 2/3/22 6/2/22 20/22/22 22/24/22
f 22/24/2 23/25/2 25/5/2 2/3/2
f 21/23/23 29/26/23 24/27/23 23/25/23
f 23/25/2 24/27/2 26/28/2 25/5/2
f 25/5/2 26/28/2 27/29/2 3/6/2
f 29/26/24 28/30/24 26/28/24 24/27/24
f 28/30/25 27/29/25 26/28/25
f 28/30/26 30/31/26 27/29/26
f 29/26/27 16/18/27 31/32/27 28/30/27
f 28/30/28 31/32/28 32/16/28 30/31/28
f 31/32/29 14/14/29 13/17/29 32/16/29
f 14/14/30 31/32/30 16/18/30
f 30/31/31 32/16/31 9/8/31 5/7/31
f 27/29/32 30/31/32 5/7/32
f 21/23/33 17/19/33 16/18/33 29/26/33
f 27/29/34 5/7/34 3/6/34
f 37/33/35 35/11/35 34/12/35 33/13/35
f 38/14/36 37/33/36 33/13/36 36/17/36
f 39/15/37 37/33/37 38/14/37
f 39/15/38 35/11/38 37/33/38
f 12/13/39 13/17/39 36/17/39 33/13/39
f 11/12/40 12/13/40 33/13/40 34/12/40
