{
  "accessors": [
    {
      "bufferView": 2,
      "componentType": 5126,
      "count": 40,
      "max": [
        2.5294299125671387,
        0.2593179941177368,
        -0.07795190066099167
      ],
      "min": [
        -2.5294299125671387,
        -1.6002600193023682,
        -1.0443899631500244
      ],
      "type": "VEC3"
    },
    {
      "bufferView": 2,
      "byteOffset": 480,
      "componentType": 5126,
      "count": 40,
      "max": [
        0.6290637254714966,
        -0.21167480945587158,
        -0.551095724105835
      ],
      "min": [
        -0.6290637254714966,
        -0.79643714427948,
        -0.9517826437950134
      ],
      "type": "VEC3"
    },
    {
      "bufferView": 1,
      "componentType": 5126,
      "count": 40,
      "max": [
        -1.0684599876403809,
        4.675849914550781
      ],
      "min": [
        -1.700819969177246,
        4.477059841156006
      ],
      "type": "VEC2"
    },
    {
      "bufferView": 0,
      "componentType": 5125,
      "count": 84,
      "type": "SCALAR"
    },
    {
      "bufferView": 2,
      "byteOffset": 960,
      "componentType": 5126,
      "count": 68,
      "max": [
        2.5314700603485107,
        0.3467339873313904,
        0.5734859704971313
      ],
      "min": [
        -2.5314700603485107,
        -0.6691830158233643,
        0.3250119984149933
      ],
      "type": "VEC3"
    },
    {
      "bufferView": 2,
      "byteOffset": 1776,
      "componentType": 5126,
      "count": 68,
      "max": [
        0.9604809284210205,
        -0.08637619018554688,
        0.9886991381645203
      ],
      "min": [
        -0.9604809284210205,
        -0.3788936734199524,
        -0.9197498559951782
      ],
      "type": "VEC3"
    },
    {
      "bufferView": 1,
      "byteOffset": 320,
      "componentType": 5126,
      "count": 68,
      "max": [
        -0.812729001045227,
        1.8469599485397339
      ],
      "min": [
        -1.4456000328063965,
        1.7199699878692627
      ],
      "type": "VEC2"
    },
    {
      "bufferView": 0,
      "byteOffset": 336,
      "componentType": 5125,
      "count": 156,
      "type": "SCALAR"
    },
    {
      "bufferView": 2,
      "byteOffset": 2592,
      "componentType": 5126,
      "count": 992,
      "max": [
        0.7310270071029663,
        6.440589904785156,
        -0.29524898529052734
      ],
      "min": [
        -0.7310270071029663,
        1.8917399644851685,
        -1.7573000192642212
      ],
      "type": "VEC3"
    },
    {
      "bufferView": 2,
      "byteOffset": 14496,
      "componentType": 5126,
      "count": 992,
      "max": [
        0.9995043277740479,
        1.0,
        0.9995043277740479
      ],
      "min": [
        -0.9995043277740479,
        -1.0,
        -0.9995043277740479
      ],
      "type": "VEC3"
    },
    {
      "bufferView": 1,
      "byteOffset": 864,
      "componentType": 5126,
      "count": 992,
      "max": [
        -2.9329800605773926,
        1.8527899980545044
      ],
      "min": [
        -3.5015900135040283,
        1.2841800451278687
      ],
      "type": "VEC2"
    },
    {
      "bufferView": 0,
      "byteOffset": 960,
      "componentType": 5125,
      "count": 2634,
      "type": "SCALAR"
    },
    {
      "bufferView": 2,
      "byteOffset": 26400,
      "componentType": 5126,
      "count": 42,
      "max": [
        2.43858003616333,
        0.550915002822876,
        0.4862520098686218
      ],
      "min": [
        -2.43858003616333,
        0.14421500265598297,
        0.40342700481414795
      ],
      "type": "VEC3"
    },
    {
      "bufferView": 2,
      "byteOffset": 26904,
      "componentType": 5126,
      "count": 42,
      "max": [
        0.9448525905609131,
        -0.08637619018554688,
        0.9886991381645203
      ],
      "min": [
        -0.9448525905609131,
        -0.9918800592422485,
        -0.8130425214767456
      ],
      "type": "VEC3"
    },
    {
      "bufferView": 1,
      "byteOffset": 8800,
      "componentType": 5126,
      "count": 42,
      "max": [
        2.0513598918914795,
        1.844920039176941
      ],
      "min": [
        1.4417099952697754,
        1.7940800189971924
      ],
      "type": "VEC2"
    },
    {
      "bufferView": 0,
      "byteOffset": 11496,
      "componentType": 5125,
      "count": 78,
      "type": "SCALAR"
    },
    {
      "bufferView": 2,
      "byteOffset": 27408,
      "componentType": 5126,
      "count": 68,
      "max": [
        2.4850199222564697,
        0.4487929940223694,
        0.5298810005187988
      ],
      "min": [
        -2.4850199222564697,
        -0.26251399517059326,
        0.3642300069332123
      ],
      "type": "VEC3"
    },
    {
      "bufferView": 2,
      "byteOffset": 28224,
      "componentType": 5126,
      "count": 68,
      "max": [
        0.9604809284210205,
        -0.08637619018554688,
        0.9886991381645203
      ],
      "min": [
        -0.9604809284210205,
        -0.3788936734199524,
        -0.9197498559951782
      ],
      "type": "VEC3"
    },
    {
      "bufferView": 1,
      "byteOffset": 9136,
      "componentType": 5126,
      "count": 68,
      "max": [
        -0.7328159809112549,
        3.334429979324341
      ],
      "min": [
        -1.3540699481964111,
        3.2455201148986816
      ],
      "type": "VEC2"
    },
    {
      "bufferView": 0,
      "byteOffset": 11808,
      "componentType": 5125,
      "count": 156,
      "type": "SCALAR"
    },
    {
      "bufferView": 2,
      "byteOffset": 29040,
      "componentType": 5126,
      "count": 5335,
      "max": [
        9.161580085754395,
        3.6583499908447266,
        1.2288899421691895
      ],
      "min": [
        -9.161580085754395,
        -4.467870235443115,
        -1.8000999689102173
      ],
      "type": "VEC3"
    },
    {
      "bufferView": 2,
      "byteOffset": 93060,
      "componentType": 5126,
      "count": 5335,
      "max": [
        1.0,
        1.0,
        1.0
      ],
      "min": [
        -1.0,
        -1.0,
        -1.0
      ],
      "type": "VEC3"
    },
    {
      "bufferView": 1,
      "byteOffset": 9680,
      "componentType": 5126,
      "count": 5335,
      "max": [
        -0.2834469974040985,
        5.970600128173828
      ],
      "min": [
        -10.356100082397461,
        -2.474479913711548
      ],
      "type": "VEC2"
    },
    {
      "bufferView": 0,
      "byteOffset": 12432,
      "componentType": 5125,
      "count": 15384,
      "type": "SCALAR"
    },
    {
      "bufferView": 2,
      "byteOffset": 157080,
      "componentType": 5126,
      "count": 1050,
      "max": [
        8.70971965789795,
        2.065540075302124,
        1.1529099941253662
      ],
      "min": [
        -8.70971965789795,
        -3.20317006111145,
        -1.7506500482559204
      ],
      "type": "VEC3"
    },
    {
      "bufferView": 2,
      "byteOffset": 169680,
      "componentType": 5126,
      "count": 1050,
      "max": [
        0.9947196841239929,
        1.0,
        0.9999690055847168
      ],
      "min": [
        -0.9947196841239929,
        -1.0,
        -0.9974983334541321
      ],
      "type": "VEC3"
    },
    {
      "bufferView": 1,
      "byteOffset": 52360,
      "componentType": 5126,
      "count": 1050,
      "max": [
        1.4360599517822266,
        7.58459997177124
      ],
      "min": [
        -2.8620400428771973,
        2.8922901153564453
      ],
      "type": "VEC2"
    },
    {
      "bufferView": 0,
      "byteOffset": 73968,
      "componentType": 5125,
      "count": 2730,
      "type": "SCALAR"
    }
  ],
  "asset": {
    "extras": {
      "author": "gavinpgamer1 (https://sketchfab.com/gavinpgamer1)",
      "license": "CC-BY-4.0 (http://creativecommons.org/licenses/by/4.0/)",
      "source": "https://sketchfab.com/3d-models/dbg-88-garont-heavy-bomber-44ebb4a77e674798ae851f8dc0b34d6e",
      "title": "DBG 88 Garont Heavy Bomber"
    },
    "generator": "Sketchfab-15.61.0",
    "version": "2.0"
  },
  "bufferViews": [
    {
      "buffer": 0,
      "byteLength": 84888,
      "name": "floatBufferViews",
      "target": 34963
    },
    {
      "buffer": 0,
      "byteLength": 60760,
      "byteOffset": 84888,
      "byteStride": 8,
      "name": "floatBufferViews",
      "target": 34962
    },
    {
      "buffer": 0,
      "byteLength": 182280,
      "byteOffset": 145648,
      "byteStride": 12,
      "name": "floatBufferViews",
      "target": 34962
    }
  ],
  "buffers": [
    {
      "byteLength": 327928,
      "uri": "scene.bin"
    }
  ],
  "extensionsUsed": [
    "KHR_materials_emissive_strength"
  ],
  "materials": [
    {
      "doubleSided": true,
      "emissiveFactor": [
        0.8143153362018923,
        0.04999488099145083,
        1.0
      ],
      "extensions": {
        "KHR_materials_emissive_strength": {
          "emissiveStrength": 8.091453231095562
        }
      },
      "name": "Engineglow1Mtl",
      "pbrMetallicRoughness": {
        "baseColorFactor": [
          0.7611850143394193,
          0.0,
          1.0,
          1.0
        ],
        "metallicFactor": 0.0,
        "roughnessFactor": 0.6
      }
    },
    {
      "doubleSided": true,
      "name": "Main1Mtl",
      "pbrMetallicRoughness": {
        "baseColorFactor": [
          0.1902856685580007,
          0.010109334496270776,
          0.010109334496270776,
          1.0
        ],
        "roughnessFactor": 0.5566860465116279
      }
    },
    {
      "doubleSided": true,
      "name": "Meshpart2Mtl",
      "pbrMetallicRoughness": {
        "baseColorFactor": [
          0.03564081245896186,
          0.03564081245896186,
          0.03564081245896186,
          1.0
        ],
        "roughnessFactor": 0.4694767441860465
      }
    },
    {
      "doubleSided": true,
      "emissiveFactor": [
        1.0,
        0.011011230500289858,
        0.0
      ],
      "extensions": {
        "KHR_materials_emissive_strength": {
          "emissiveStrength": 10.0
        }
      },
      "name": "Meshpart4Mtl",
      "pbrMetallicRoughness": {
        "baseColorFactor": [
          1.0,
          0.0,
          0.0,
          1.0
        ],
        "metallicFactor": 0.0,
        "roughnessFactor": 0.6
      }
    },
    {
      "doubleSided": true,
      "emissiveFactor": [
        1.0,
        0.0020548508178306287,
        0.0
      ],
      "extensions": {
        "KHR_materials_emissive_strength": {
          "emissiveStrength": 10.0
        }
      },
      "name": "Meshpart5Mtl",
      "pbrMetallicRoughness": {
        "baseColorFactor": [
          1.0,
          0.43415363617474895,
          0.0,
          1.0
        ],
        "metallicFactor": 0.0,
        "roughnessFactor": 0.6
      }
    },
    {
      "doubleSided": true,
      "name": "Meshpart6Mtl",
      "pbrMetallicRoughness": {
        "baseColorFactor": [
          0.6128662499164927,
          0.5729470923316233,
          0.058056821641751424,
          1.0
        ],
        "roughnessFactor": 0.27180232558139533
      }
    },
    {
      "doubleSided": true,
      "emissiveFactor": [
        1.0,
        0.0,
        0.0
      ],
      "extensions": {
        "KHR_materials_emissive_strength": {
          "emissiveStrength": 10.0
        }
      },
      "name": "Meshpart7Mtl",
      "pbrMetallicRoughness": {
        "baseColorFactor": [
          1.0,
          0.3021442835800518,
          0.0,
          1.0
        ],
        "metallicFactor": 0.0,
        "roughnessFactor": 0.6
      }
    }
  ],
  "meshes": [
    {
      "name": "Object_0",
      "primitives": [
        {
          "attributes": {
            "NORMAL": 1,
            "POSITION": 0,
            "TEXCOORD_0": 2
          },
          "indices": 3,
          "material": 0,
          "mode": 4
        }
      ]
    },
    {
      "name": "Object_1",
      "primitives": [
        {
          "attributes": {
            "NORMAL": 5,
            "POSITION": 4,
            "TEXCOORD_0": 6
          },
          "indices": 7,
          "material": 3,
          "mode": 4
        }
      ]
    },
    {
      "name": "Object_2",
      "primitives": [
        {
          "attributes": {
            "NORMAL": 9,
            "POSITION": 8,
            "TEXCOORD_0": 10
          },
          "indices": 11,
          "material": 5,
          "mode": 4
        }
      ]
    },
    {
      "name": "Object_3",
      "primitives": [
        {
          "attributes": {
            "NORMAL": 13,
            "POSITION": 12,
            "TEXCOORD_0": 14
          },
          "indices": 15,
          "material": 4,
          "mode": 4
        }
      ]
    },
    {
      "name": "Object_4",
      "primitives": [
        {
          "attributes": {
            "NORMAL": 17,
            "POSITION": 16,
            "TEXCOORD_0": 18
          },
          "indices": 19,
          "material": 6,
          "mode": 4
        }
      ]
    },
    {
      "name": "Object_5",
      "primitives": [
        {
          "attributes": {
            "NORMAL": 21,
            "POSITION": 20,
            "TEXCOORD_0": 22
          },
          "indices": 23,
          "material": 1,
          "mode": 4
        }
      ]
    },
    {
      "name": "Object_6",
      "primitives": [
        {
          "attributes": {
            "NORMAL": 25,
            "POSITION": 24,
            "TEXCOORD_0": 26
          },
          "indices": 27,
          "material": 2,
          "mode": 4
        }
      ]
    }
  ],
  "nodes": [
    {
      "children": [
        1
      ],
      "matrix": [
        1.0,
        0.0,
        0.0,
        0.0,
        0.0,
        2.220446049250313e-16,
        -1.0,
        0.0,
        0.0,
        1.0,
        2.220446049250313e-16,
        0.0,
        0.0,
        0.0,
        0.0,
        1.0
      ],
      "name": "Sketchfab_model"
    },
    {
      "children": [
        2,
        3,
        4,
        5,
        6,
        7,
        8
      ],
      "name": "dwg 88 garont roblox.obj.cleaner.materialmerger.gles"
    },
    {
      "mesh": 0,
      "name": "Object_2"
    },
    {
      "mesh": 1,
      "name": "Object_3"
    },
    {
      "mesh": 2,
      "name": "Object_4"
    },
    {
      "mesh": 3,
      "name": "Object_5"
    },
    {
      "mesh": 4,
      "name": "Object_6"
    },
    {
      "mesh": 5,
      "name": "Object_7"
    },
    {
      "mesh": 6,
      "name": "Object_8"
    }
  ],
  "scene": 0,
  "scenes": [
    {
      "name": "Sketchfab_Scene",
      "nodes": [
        0
      ]
    }
  ]
}
