{
  "accessors": [
    {
      "bufferView": 2,
      "componentType": 5126,
      "count": 65532,
      "max": [
        0.464028000831604,
        0.8411279916763306,
        0.2922300100326538
      ],
      "min": [
        -0.4542340040206909,
        -0.9503639936447144,
        -0.2936530113220215
      ],
      "type": "VEC3"
    },
    {
      "bufferView": 2,
      "byteOffset": 786384,
      "componentType": 5126,
      "count": 65532,
      "max": [
        0.9999611377716064,
        0.9999892115592957,
        0.9999901652336121
      ],
      "min": [
        -0.9999972581863403,
        -0.999997615814209,
        -0.9999966621398926
      ],
      "type": "VEC3"
    },
    {
      "bufferView": 1,
      "componentType": 5126,
      "count": 65532,
      "max": [
        0.9968820214271545,
        0.9974910020828247
      ],
      "min": [
        0.0021069999784231186,
        0.0012660026550292969
      ],
      "type": "VEC2"
    },
    {
      "bufferView": 1,
      "byteOffset": 524256,
      "componentType": 5126,
      "count": 65532,
      "max": [
        0.9968820214271545,
        0.9974910020828247
      ],
      "min": [
        0.0021069999784231186,
        0.0012660026550292969
      ],
      "type": "VEC2"
    },
    {
      "bufferView": 1,
      "byteOffset": 1048512,
      "componentType": 5126,
      "count": 65532,
      "max": [
        0.9968820214271545,
        0.9974910020828247
      ],
      "min": [
        0.0021069999784231186,
        0.0012660026550292969
      ],
      "type": "VEC2"
    },
    {
      "bufferView": 1,
      "byteOffset": 1572768,
      "componentType": 5126,
      "count": 65532,
      "max": [
        0.9968820214271545,
        0.9974910020828247
      ],
      "min": [
        0.0021069999784231186,
        0.0012660026550292969
      ],
      "type": "VEC2"
    },
    {
      "bufferView": 0,
      "componentType": 5125,
      "count": 335166,
      "type": "SCALAR"
    },
    {
      "bufferView": 2,
      "byteOffset": 1572768,
      "componentType": 5126,
      "count": 65532,
      "max": [
        0.4643020033836365,
        0.9481369853019714,
        0.2959350049495697
      ],
      "min": [
        -0.46404099464416504,
        -0.9501320123672485,
        -0.25237300992012024
      ],
      "type": "VEC3"
    },
    {
      "bufferView": 2,
      "byteOffset": 2359152,
      "componentType": 5126,
      "count": 65532,
      "max": [
        0.9999772906303406,
        0.9999575614929199,
        0.9999914169311523
      ],
      "min": [
        -0.9999686479568481,
        -0.9999974966049194,
        -0.9999364614486694
      ],
      "type": "VEC3"
    },
    {
      "bufferView": 1,
      "byteOffset": 2097024,
      "componentType": 5126,
      "count": 65532,
      "max": [
        0.9968600273132324,
        0.9989979863166809
      ],
      "min": [
        0.00015900000289548188,
        0.00015598535537719727
      ],
      "type": "VEC2"
    },
    {
      "bufferView": 1,
      "byteOffset": 2621280,
      "componentType": 5126,
      "count": 65532,
      "max": [
        0.9968600273132324,
        0.9989979863166809
      ],
      "min": [
        0.00015900000289548188,
        0.00015598535537719727
      ],
      "type": "VEC2"
    },
    {
      "bufferView": 1,
      "byteOffset": 3145536,
      "componentType": 5126,
      "count": 65532,
      "max": [
        0.9968600273132324,
        0.9989979863166809
      ],
      "min": [
        0.00015900000289548188,
        0.00015598535537719727
      ],
      "type": "VEC2"
    },
    {
      "bufferView": 1,
      "byteOffset": 3669792,
      "componentType": 5126,
      "count": 65532,
      "max": [
        0.9968600273132324,
        0.9989979863166809
      ],
      "min": [
        0.00015900000289548188,
        0.00015598535537719727
      ],
      "type": "VEC2"
    },
    {
      "bufferView": 0,
      "byteOffset": 1340664,
      "componentType": 5125,
      "count": 334137,
      "type": "SCALAR"
    },
    {
      "bufferView": 2,
      "byteOffset": 3145536,
      "componentType": 5126,
      "count": 65533,
      "max": [
        0.4522959887981415,
        0.9471110105514526,
        0.16997100412845612
      ],
      "min": [
        -0.4663670063018799,
        -0.9502919912338257,
        -0.1591619998216629
      ],
      "type": "VEC3"
    },
    {
      "bufferView": 2,
      "byteOffset": 3931932,
      "componentType": 5126,
      "count": 65533,
      "max": [
        0.9999995231628418,
        0.9999588131904602,
        0.9995889067649841
      ],
      "min": [
        -0.9999927282333374,
        -1.0,
        -0.999906063079834
      ],
      "type": "VEC3"
    },
    {
      "bufferView": 1,
      "byteOffset": 4194048,
      "componentType": 5126,
      "count": 65533,
      "max": [
        0.9970250129699707,
        0.999862015247345
      ],
      "min": [
        9.100000170292333e-05,
        5.4001808166503906e-05
      ],
      "type": "VEC2"
    },
    {
      "bufferView": 1,
      "byteOffset": 4718312,
      "componentType": 5126,
      "count": 65533,
      "max": [
        0.9970250129699707,
        0.999862015247345
      ],
      "min": [
        9.100000170292333e-05,
        5.4001808166503906e-05
      ],
      "type": "VEC2"
    },
    {
      "bufferView": 1,
      "byteOffset": 5242576,
      "componentType": 5126,
      "count": 65533,
      "max": [
        0.9970250129699707,
        0.999862015247345
      ],
      "min": [
        9.100000170292333e-05,
        5.4001808166503906e-05
      ],
      "type": "VEC2"
    },
    {
      "bufferView": 1,
      "byteOffset": 5766840,
      "componentType": 5126,
      "count": 65533,
      "max": [
        0.9970250129699707,
        0.999862015247345
      ],
      "min": [
        9.100000170292333e-05,
        5.4001808166503906e-05
      ],
      "type": "VEC2"
    },
    {
      "bufferView": 0,
      "byteOffset": 2677212,
      "componentType": 5125,
      "count": 327828,
      "type": "SCALAR"
    },
    {
      "bufferView": 2,
      "byteOffset": 4718328,
      "componentType": 5126,
      "count": 65532,
      "max": [
        0.46321699023246765,
        0.9464330077171326,
        0.18350599706172943
      ],
      "min": [
        -0.4637329876422882,
        -0.95032799243927,
        -0.2992109954357147
      ],
      "type": "VEC3"
    },
    {
      "bufferView": 2,
      "byteOffset": 5504712,
      "componentType": 5126,
      "count": 65532,
      "max": [
        0.9999698400497437,
        0.9999979734420776,
        0.9997305870056152
      ],
      "min": [
        -0.9999748468399048,
        -0.999996542930603,
        -0.9999661445617676
      ],
      "type": "VEC3"
    },
    {
      "bufferView": 1,
      "byteOffset": 6291104,
      "componentType": 5126,
      "count": 65532,
      "max": [
        0.9968299865722656,
        0.9998959898948669
      ],
      "min": [
        4.3000000005122274e-05,
        7.987022399902344e-06
      ],
      "type": "VEC2"
    },
    {
      "bufferView": 1,
      "byteOffset": 6815360,
      "componentType": 5126,
      "count": 65532,
      "max": [
        0.9968299865722656,
        0.9998959898948669
      ],
      "min": [
        4.3000000005122274e-05,
        7.987022399902344e-06
      ],
      "type": "VEC2"
    },
    {
      "bufferView": 1,
      "byteOffset": 7339616,
      "componentType": 5126,
      "count": 65532,
      "max": [
        0.9968299865722656,
        0.9998959898948669
      ],
      "min": [
        4.3000000005122274e-05,
        7.987022399902344e-06
      ],
      "type": "VEC2"
    },
    {
      "bufferView": 1,
      "byteOffset": 7863872,
      "componentType": 5126,
      "count": 65532,
      "max": [
        0.9968299865722656,
        0.9998959898948669
      ],
      "min": [
        4.3000000005122274e-05,
        7.987022399902344e-06
      ],
      "type": "VEC2"
    },
    {
      "bufferView": 0,
      "byteOffset": 3988524,
      "componentType": 5125,
      "count": 315960,
      "type": "SCALAR"
    },
    {
      "bufferView": 2,
      "byteOffset": 6291096,
      "componentType": 5126,
      "count": 65532,
      "max": [
        0.45778200030326843,
        0.9407250285148621,
        0.23357200622558594
      ],
      "min": [
        -0.46404099464416504,
        -0.9478989839553833,
        0.06526900082826614
      ],
      "type": "VEC3"
    },
    {
      "bufferView": 2,
      "byteOffset": 7077480,
      "componentType": 5126,
      "count": 65532,
      "max": [
        0.9999769330024719,
        0.9999979734420776,
        0.9999972581863403
      ],
      "min": [
        -0.9998288750648499,
        -0.9999980330467224,
        -0.9998705983161926
      ],
      "type": "VEC3"
    },
    {
      "bufferView": 1,
      "byteOffset": 8388128,
      "componentType": 5126,
      "count": 65532,
      "max": [
        0.9965329766273499,
        0.9998980164527893
      ],
      "min": [
        6.399999983841553e-05,
        1.0132789611816406e-06
      ],
      "type": "VEC2"
    },
    {
      "bufferView": 1,
      "byteOffset": 8912384,
      "componentType": 5126,
      "count": 65532,
      "max": [
        0.9965329766273499,
        0.9998980164527893
      ],
      "min": [
        6.399999983841553e-05,
        1.0132789611816406e-06
      ],
      "type": "VEC2"
    },
    {
      "bufferView": 1,
      "byteOffset": 9436640,
      "componentType": 5126,
      "count": 65532,
      "max": [
        0.9965329766273499,
        0.9998980164527893
      ],
      "min": [
        6.399999983841553e-05,
        1.0132789611816406e-06
      ],
      "type": "VEC2"
    },
    {
      "bufferView": 1,
      "byteOffset": 9960896,
      "componentType": 5126,
      "count": 65532,
      "max": [
        0.9965329766273499,
        0.9998980164527893
      ],
      "min": [
        6.399999983841553e-05,
        1.0132789611816406e-06
      ],
      "type": "VEC2"
    },
    {
      "bufferView": 0,
      "byteOffset": 5252364,
      "componentType": 5125,
      "count": 308505,
      "type": "SCALAR"
    },
    {
      "bufferView": 2,
      "byteOffset": 7863864,
      "componentType": 5126,
      "count": 4809,
      "max": [
        0.4396919906139374,
        0.6025879979133606,
        0.2426449954509735
      ],
      "min": [
        -0.15156899392604828,
        -0.9470739960670471,
        0.19230400025844574
      ],
      "type": "VEC3"
    },
    {
      "bufferView": 2,
      "byteOffset": 7921572,
      "componentType": 5126,
      "count": 4809,
      "max": [
        0.9996868968009949,
        0.9999895095825195,
        0.9998725652694702
      ],
      "min": [
        -0.9926759600639343,
        -0.9998962879180908,
        -0.9986552596092224
      ],
      "type": "VEC3"
    },
    {
      "bufferView": 1,
      "byteOffset": 10485152,
      "componentType": 5126,
      "count": 4809,
      "max": [
        0.9959040284156799,
        0.9968500137329102
      ],
      "min": [
        0.00020300000323913991,
        2.09808349609375e-05
      ],
      "type": "VEC2"
    },
    {
      "bufferView": 1,
      "byteOffset": 10523624,
      "componentType": 5126,
      "count": 4809,
      "max": [
        0.9959040284156799,
        0.9968500137329102
      ],
      "min": [
        0.00020300000323913991,
        2.09808349609375e-05
      ],
      "type": "VEC2"
    },
    {
      "bufferView": 1,
      "byteOffset": 10562096,
      "componentType": 5126,
      "count": 4809,
      "max": [
        0.9959040284156799,
        0.9968500137329102
      ],
      "min": [
        0.00020300000323913991,
        2.09808349609375e-05
      ],
      "type": "VEC2"
    },
    {
      "bufferView": 1,
      "byteOffset": 10600568,
      "componentType": 5126,
      "count": 4809,
      "max": [
        0.9959040284156799,
        0.9968500137329102
      ],
      "min": [
        0.00020300000323913991,
        2.09808349609375e-05
      ],
      "type": "VEC2"
    },
    {
      "bufferView": 0,
      "byteOffset": 6486384,
      "componentType": 5125,
      "count": 16428,
      "type": "SCALAR"
    }
  ],
  "asset": {
    "extras": {
      "author": "3dUVpro (https://sketchfab.com/3dUVpro)",
      "license": "CC-BY-4.0 (http://creativecommons.org/licenses/by/4.0/)",
      "source": "https://sketchfab.com/3d-models/cyborg-soldier-scifi-character-890f5493c9c041c0a0923fc23b01d086",
      "title": "Cyborg Soldier SciFi Character"
    },
    "generator": "Sketchfab-17.8.0",
    "version": "2.0"
  },
  "bufferViews": [
    {
      "buffer": 0,
      "byteLength": 6552096,
      "name": "floatBufferViews",
      "target": 34963
    },
    {
      "buffer": 0,
      "byteLength": 10639040,
      "byteOffset": 6552096,
      "byteStride": 8,
      "name": "floatBufferViews",
      "target": 34962
    },
    {
      "buffer": 0,
      "byteLength": 7979280,
      "byteOffset": 17191136,
      "byteStride": 12,
      "name": "floatBufferViews",
      "target": 34962
    }
  ],
  "buffers": [
    {
      "byteLength": 25170416,
      "uri": "scene.bin"
    }
  ],
  "extensionsRequired": [
    "KHR_materials_pbrSpecularGlossiness"
  ],
  "extensionsUsed": [
    "KHR_materials_pbrSpecularGlossiness",
    "KHR_materials_emissive_strength"
  ],
  "images": [
    {
      "uri": "textures/material_0_diffuse.jpeg"
    },
    {
      "uri": "textures/material_0_specularGlossiness.png"
    },
    {
      "uri": "textures/material_0_occlusion.png"
    }
  ],
  "materials": [
    {
      "doubleSided": true,
      "emissiveFactor": [
        1.0,
        1.0,
        1.0
      ],
      "emissiveTexture": {
        "index": 0
      },
      "extensions": {
        "KHR_materials_emissive_strength": {
          "emissiveStrength": 1.0988763048012489
        },
        "KHR_materials_pbrSpecularGlossiness": {
          "diffuseFactor": [
            1.0,
            1.0,
            1.0,
            1.0
          ],
          "diffuseTexture": {
            "index": 0
          },
          "glossinessFactor": 1.0,
          "specularFactor": [
            0.4137244822442016,
            0.4137244822442016,
            0.4137244822442016
          ],
          "specularGlossinessTexture": {
            "index": 1,
            "texCoord": 1
          }
        }
      },
      "name": "material_0",
      "occlusionTexture": {
        "index": 2,
        "strength": 0.8634030228550352
      }
    }
  ],
  "meshes": [
    {
      "name": "Object_0",
      "primitives": [
        {
          "attributes": {
            "NORMAL": 1,
            "POSITION": 0,
            "TEXCOORD_0": 2,
            "TEXCOORD_1": 3,
            "TEXCOORD_2": 4,
            "TEXCOORD_3": 5
          },
          "indices": 6,
          "material": 0,
          "mode": 4
        }
      ]
    },
    {
      "name": "Object_1",
      "primitives": [
        {
          "attributes": {
            "NORMAL": 8,
            "POSITION": 7,
            "TEXCOORD_0": 9,
            "TEXCOORD_1": 10,
            "TEXCOORD_2": 11,
            "TEXCOORD_3": 12
          },
          "indices": 13,
          "material": 0,
          "mode": 4
        }
      ]
    },
    {
      "name": "Object_2",
      "primitives": [
        {
          "attributes": {
            "NORMAL": 15,
            "POSITION": 14,
            "TEXCOORD_0": 16,
            "TEXCOORD_1": 17,
            "TEXCOORD_2": 18,
            "TEXCOORD_3": 19
          },
          "indices": 20,
          "material": 0,
          "mode": 4
        }
      ]
    },
    {
      "name": "Object_3",
      "primitives": [
        {
          "attributes": {
            "NORMAL": 22,
            "POSITION": 21,
            "TEXCOORD_0": 23,
            "TEXCOORD_1": 24,
            "TEXCOORD_2": 25,
            "TEXCOORD_3": 26
          },
          "indices": 27,
          "material": 0,
          "mode": 4
        }
      ]
    },
    {
      "name": "Object_4",
      "primitives": [
        {
          "attributes": {
            "NORMAL": 29,
            "POSITION": 28,
            "TEXCOORD_0": 30,
            "TEXCOORD_1": 31,
            "TEXCOORD_2": 32,
            "TEXCOORD_3": 33
          },
          "indices": 34,
          "material": 0,
          "mode": 4
        }
      ]
    },
    {
      "name": "Object_5",
      "primitives": [
        {
          "attributes": {
            "NORMAL": 36,
            "POSITION": 35,
            "TEXCOORD_0": 37,
            "TEXCOORD_1": 38,
            "TEXCOORD_2": 39,
            "TEXCOORD_3": 40
          },
          "indices": 41,
          "material": 0,
          "mode": 4
        }
      ]
    }
  ],
  "nodes": [
    {
      "children": [
        1
      ],
      "matrix": [
        1.0,
        0.0,
        0.0,
        0.0,
        0.0,
        2.220446049250313e-16,
        -1.0,
        0.0,
        0.0,
        1.0,
        2.220446049250313e-16,
        0.0,
        0.0,
        0.0,
        0.0,
        1.0
      ],
      "name": "Sketchfab_model"
    },
    {
      "children": [
        2
      ],
      "name": "root"
    },
    {
      "children": [
        3
      ],
      "matrix": [
        1.0,
        0.0,
        0.0,
        0.0,
        0.0,
        2.220446049250313e-16,
        1.0,
        0.0,
        0.0,
        -1.0,
        2.220446049250313e-16,
        0.0,
        0.0,
        0.0,
        0.0,
        1.0
      ],
      "name": "GLTF_SceneRootNode"
    },
    {
      "children": [
        4
      ],
      "name": "_1"
    },
    {
      "children": [
        5,
        6,
        7,
        8,
        9,
        10
      ],
      "name": "mesh_0_0"
    },
    {
      "mesh": 0,
      "name": "Object_5"
    },
    {
      "mesh": 1,
      "name": "Object_6"
    },
    {
      "mesh": 2,
      "name": "Object_7"
    },
    {
      "mesh": 3,
      "name": "Object_8"
    },
    {
      "mesh": 4,
      "name": "Object_9"
    },
    {
      "mesh": 5,
      "name": "Object_10"
    }
  ],
  "samplers": [
    {
      "magFilter": 9729,
      "minFilter": 9987,
      "wrapS": 10497,
      "wrapT": 10497
    }
  ],
  "scene": 0,
  "scenes": [
    {
      "name": "Sketchfab_Scene",
      "nodes": [
        0
      ]
    }
  ],
  "textures": [
    {
      "sampler": 0,
      "source": 0
    },
    {
      "sampler": 0,
      "source": 1
    },
    {
      "sampler": 0,
      "source": 2
    }
  ]
}
