{
  "accessors": [
    {
      "bufferView": 2,
      "componentType": 5126,
      "count": 51300,
      "max": [
        0.1426682025194168,
        0.09953529387712479,
        0.09715476632118225
      ],
      "min": [
        -0.1426682025194168,
        -0.08279341459274292,
        -0.024363059550523758
      ],
      "type": "VEC3"
    },
    {
      "bufferView": 2,
      "byteOffset": 615600,
      "componentType": 5126,
      "count": 51300,
      "max": [
        1.0,
        1.0,
        1.0
      ],
      "min": [
        -1.0,
        -1.0,
        -1.0
      ],
      "type": "VEC3"
    },
    {
      "bufferView": 3,
      "componentType": 5126,
      "count": 51300,
      "max": [
        1.0,
        1.0,
        1.0,
        1.0
      ],
      "min": [
        -1.0,
        -1.0,
        -1.0,
        -1.0
      ],
      "type": "VEC4"
    },
    {
      "bufferView": 1,
      "componentType": 5126,
      "count": 51300,
      "max": [
        1.0927734375,
        1.099609375
      ],
      "min": [
        -0.04541015625,
        -0.1307373046875
      ],
      "type": "VEC2"
    },
    {
      "bufferView": 1,
      "byteOffset": 410400,
      "componentType": 5126,
      "count": 51300,
      "max": [
        1.0927734375,
        1.099609375
      ],
      "min": [
        -0.04541015625,
        -0.1307373046875
      ],
      "type": "VEC2"
    },
    {
      "bufferView": 0,
      "componentType": 5125,
      "count": 101994,
      "type": "SCALAR"
    }
  ],
  "asset": {
    "extras": {
      "author": "OrangeSauceu (https://sketchfab.com/orangesauceu)",
      "license": "CC-BY-4.0 (http://creativecommons.org/licenses/by/4.0/)",
      "source": "https://sketchfab.com/3d-models/flying-ship-fbf31e27165043ad96fd8dc37d64b565",
      "title": "Flying Ship"
    },
    "generator": "Sketchfab-17.8.0",
    "version": "2.0"
  },
  "bufferViews": [
    {
      "buffer": 0,
      "byteLength": 407976,
      "name": "floatBufferViews",
      "target": 34963
    },
    {
      "buffer": 0,
      "byteLength": 820800,
      "byteOffset": 407976,
      "byteStride": 8,
      "name": "floatBufferViews",
      "target": 34962
    },
    {
      "buffer": 0,
      "byteLength": 1231200,
      "byteOffset": 1228776,
      "byteStride": 12,
      "name": "floatBufferViews",
      "target": 34962
    },
    {
      "buffer": 0,
      "byteLength": 820800,
      "byteOffset": 2459976,
      "byteStride": 16,
      "name": "floatBufferViews",
      "target": 34962
    }
  ],
  "buffers": [
    {
      "byteLength": 3280776,
      "uri": "scene.bin"
    }
  ],
  "images": [
    {
      "uri": "textures/SCIFIPANELS05_baseColor.png"
    },
    {
      "uri": "textures/SCIFIPANELS05_metallicRoughness.png"
    },
    {
      "uri": "textures/SCIFIPANELS05_normal.png"
    }
  ],
  "materials": [
    {
      "doubleSided": true,
      "name": "SCIFIPANELS05",
      "normalTexture": {
        "index": 2
      },
      "occlusionTexture": {
        "index": 1
      },
      "pbrMetallicRoughness": {
        "baseColorTexture": {
          "index": 0
        },
        "metallicRoughnessTexture": {
          "index": 1
        }
      }
    }
  ],
  "meshes": [
    {
      "name": "flyingShip_SCIFIPANELS05_0",
      "primitives": [
        {
          "attributes": {
            "NORMAL": 1,
            "POSITION": 0,
            "TANGENT": 2,
            "TEXCOORD_0": 3,
            "TEXCOORD_1": 4
          },
          "indices": 5,
          "material": 0,
          "mode": 4
        }
      ]
    }
  ],
  "nodes": [
    {
      "children": [
        1
      ],
      "matrix": [
        1.0,
        0.0,
        0.0,
        0.0,
        0.0,
        2.220446049250313e-16,
        -1.0,
        0.0,
        0.0,
        1.0,
        2.220446049250313e-16,
        0.0,
        0.0,
        0.0,
        0.0,
        1.0
      ],
      "name": "Sketchfab_model"
    },
    {
      "children": [
        2
      ],
      "matrix": [
        0.009999999776482582,
        0.0,
        0.0,
        0.0,
        0.0,
        0.0,
        0.009999999776482582,
        0.0,
        0.0,
        -0.009999999776482582,
        0.0,
        0.0,
        0.0,
        0.0,
        0.0,
        1.0
      ],
      "name": "flyingShip.fbx"
    },
    {
      "children": [
        3
      ],
      "name": "RootNode"
    },
    {
      "children": [
        4
      ],
      "matrix": [
        100.0,
        0.0,
        0.0,
        0.0,
        0.0,
        2.220446049250313e-14,
        -100.0,
        0.0,
        0.0,
        100.0,
        2.220446049250313e-14,
        0.0,
        28.700000762939453,
        2.5,
        -126.0999984741211,
        1.0
      ],
      "name": "flyingShip"
    },
    {
      "mesh": 0,
      "name": "flyingShip_SCIFIPANELS05_0"
    }
  ],
  "samplers": [
    {
      "magFilter": 9729,
      "minFilter": 9987,
      "wrapS": 10497,
      "wrapT": 10497
    }
  ],
  "scene": 0,
  "scenes": [
    {
      "name": "Sketchfab_Scene",
      "nodes": [
        0
      ]
    }
  ],
  "textures": [
    {
      "sampler": 0,
      "source": 0
    },
    {
      "sampler": 0,
      "source": 1
    },
    {
      "sampler": 0,
      "source": 2
    }
  ]
}
